HIERARCHY
ROOT hip
{
	OFFSET 0.000000 0.000000 0.000000 
	CHANNELS 6 Xposition Yposition Zposition Xrotation Zrotation Yrotation
	JOINT abdomen
	{
		OFFSET 0.000000 3.402643 0.000000 
		CHANNELS 3 Xrotation Zrotation Yrotation
		JOINT chest
		{
			OFFSET 0.000000 8.438565 -0.680529 
			CHANNELS 3 Xrotation Zrotation Yrotation
			JOINT neck
			{
				OFFSET 0.000000 10.207942 -0.272212 
				CHANNELS 3 Xrotation Zrotation Yrotation
				JOINT head
				{
					OFFSET 0.000000 3.130431 0.000000 
					CHANNELS 3 Xrotation Zrotation Yrotation
					End Site
					{
						OFFSET 0.000000 3.130435 0.000000 
					}
				}
			}
			JOINT lCollar
			{
				OFFSET 3.470700 6.669187 -0.816635 
				CHANNELS 3 Yrotation Zrotation Xrotation
				JOINT lShldr
				{
					OFFSET 3.198488 0.000000 0.000000 
					CHANNELS 3 Zrotation Yrotation Xrotation
					JOINT lForeArm
					{
						OFFSET 10.139888 0.000000 0.000000 
						CHANNELS 3 Yrotation Zrotation Xrotation
						JOINT lHand
						{
							OFFSET 8.370511 0.000000 0.000000 
							CHANNELS 3 Zrotation Yrotation Xrotation
							End Site
							{
								OFFSET 4.083176 0.000000 0.000000 
							}
						}
					}
				}
			}
			JOINT rCollar
			{
				OFFSET -3.470700 6.669187 -0.816635 
				CHANNELS 3 Yrotation Zrotation Xrotation
				JOINT rShldr
				{
					OFFSET -3.198488 0.000000 0.000000 
					CHANNELS 3 Zrotation Yrotation Xrotation
					JOINT rForeArm
					{
						OFFSET -10.139888 0.000000 0.000000 
						CHANNELS 3 Yrotation Zrotation Xrotation
						JOINT rHand
						{
							OFFSET -8.370511 0.000000 0.000000 
							CHANNELS 3 Zrotation Yrotation Xrotation
							End Site
							{
								OFFSET -4.083176 0.000000 0.000000 
							}
						}
					}
				}
			}
		}
	}
	JOINT lThigh
	{
		OFFSET 5.308129 -1.633274 1.361059 
		CHANNELS 3 Xrotation Zrotation Yrotation
		JOINT lShin
		{
			OFFSET -2.041588 -20.007561 0.000000 
			CHANNELS 3 Xrotation Zrotation Yrotation
			JOINT lFoot
			{
				OFFSET 0.000000 -19.190928 -1.224953 
				CHANNELS 3 Xrotation Yrotation Zrotation
				End Site
				{
					OFFSET 0.000000 -2.449906 4.627600 
				}
			}
		}
	}
	JOINT rThigh
	{
		OFFSET -5.308129 -1.633274 1.361059 
		CHANNELS 3 Xrotation Zrotation Yrotation
		JOINT rShin
		{
			OFFSET 2.041588 -20.007561 0.000000 
			CHANNELS 3 Xrotation Zrotation Yrotation
			JOINT rFoot
			{
				OFFSET 0.000000 -19.190928 -1.224953 
				CHANNELS 3 Xrotation Yrotation Zrotation
				End Site
				{
					OFFSET 0.000000 -2.449906 4.627600 
				}
			}
		}
	}
}
MOTION
Frames: 13
Frame Time: 0.011111
-47.636501 46.826317 3.786628 164.652786 17.530127 -19.530247 28.496117 -6.926432 2.321392 -24.454687 -7.369083 1.659280 -8.030372 9.639502 8.308463 17.920807 19.276384 20.571520 -4.921947 -9.476123 -0.539306 38.425316 -65.277390 -77.846352 -84.242249 3.693153 25.658764 8.524705 12.647240 -57.347061 3.322233 12.489151 -0.342371 -64.346886 51.038780 -63.716053 74.356339 -8.416706 19.304886 -8.534408 -12.637552 70.638527 -124.500168 55.111416 -13.334354 128.813522 6.595558 -8.505245 49.284744 4.114921 2.798455 -6.572978 -35.260468 -12.216866 -0.118274 5.940318 0.662502 -37.448273 1.404565 1.361264 
-47.548515 46.863033 3.670197 164.085632 17.018509 -19.088253 29.500994 -6.482080 2.279226 -24.573076 -7.380948 1.616903 -7.910279 9.481867 8.308197 16.529333 19.383713 20.384090 -4.921947 -9.476123 -0.539306 38.563904 -65.377327 -77.925476 -84.220680 3.713494 25.636890 8.524705 12.647240 -57.063854 3.322233 12.489151 -0.342371 -64.465439 50.732552 -64.084625 74.265282 -8.439093 19.253492 -8.534408 -12.637552 70.511574 -124.971123 53.354557 -12.878630 128.458755 6.556277 -8.546679 47.791763 -4.731122 9.870309 -6.006762 -33.880371 -12.665174 -0.119212 5.940115 0.652763 -37.230141 -2.045661 -0.997014 
-47.459206 46.929184 3.542853 163.512680 16.474079 -18.639761 30.466305 -6.047051 2.273008 -24.691090 -7.362913 1.581465 -7.721811 9.280192 8.285317 14.824890 19.453075 20.119202 -4.921947 -9.476123 -0.539306 38.734039 -65.479759 -77.983948 -84.183868 3.746457 25.593584 8.524705 12.647240 -56.790417 3.322233 12.489151 -0.342371 -64.580093 50.445721 -64.472565 74.141113 -8.465198 19.190929 -8.534408 -12.637552 70.355324 -125.772331 51.499310 -12.587275 128.026001 6.497085 -8.576398 -135.768158 -165.252777 194.245132 -5.215528 -32.407154 -13.167589 -0.118096 5.940319 0.662500 -36.447643 -5.732501 -3.163606 
-47.373535 47.015511 3.406246 162.932465 15.929226 -18.210430 31.393547 -5.622711 2.277040 -24.827930 -7.276510 1.541683 -7.512209 8.954735 8.239164 12.811884 19.491770 19.748861 -4.921947 -9.476123 -0.539306 38.895599 -65.581612 -77.984978 -84.132118 3.793411 25.548912 8.524705 12.647240 -56.516979 3.322233 12.489151 -0.342371 -64.743774 50.201557 -64.892998 73.958008 -8.507833 19.089771 -8.534408 -12.637552 70.160019 -126.817558 49.556198 -12.311754 127.583672 6.437959 -8.603034 -142.934525 -154.721481 194.124786 -4.238839 -30.914549 -13.726617 -0.118016 5.940323 0.662498 -35.159992 -9.128568 -4.691624 
-47.293163 47.122021 3.257400 162.354584 15.379890 -17.787977 32.263519 -5.225418 2.289103 -25.023769 -7.188798 1.508832 -7.206656 8.649732 8.163584 10.462909 19.454163 19.271299 -4.921947 -9.476123 -0.539306 39.054462 -65.633644 -77.866142 -84.059517 3.860193 25.471844 8.524705 12.647240 -56.214245 3.322233 12.489151 -0.342371 -64.880096 50.063564 -65.325592 73.732819 -8.558603 18.984076 -8.534408 -12.637552 69.915871 -128.038574 47.574081 -12.032964 127.072197 6.380755 -8.642881 25.128412 -33.547611 8.286814 -3.135896 -29.435900 -14.283976 -0.117949 5.940136 0.652746 -33.678398 -11.430019 -5.355660 
-47.221058 47.242748 3.094993 161.778152 14.835013 -17.375021 33.074883 -4.854284 2.302527 -25.269125 -7.129262 1.484568 -6.946510 8.095893 8.067951 7.889915 19.667681 18.731852 -4.921947 -9.476123 -0.539306 39.189152 -65.683838 -77.553696 -83.978996 3.934140 25.404125 8.524705 12.647240 -55.862679 3.322233 12.489151 -0.342371 -64.967720 49.990993 -65.722168 73.465256 -8.614350 18.843292 -8.534408 -12.637552 69.622902 -129.416046 45.562653 -11.770501 126.423225 6.292013 -8.700768 10.551606 -36.880276 -0.680627 -1.895040 -28.035074 -14.861057 -0.117898 5.940135 0.652745 -32.532036 -12.100112 -5.219785 
-47.160526 47.368446 2.921009 161.196075 14.269843 -16.977085 33.816425 -4.485453 2.358735 -25.553881 -7.077681 1.475430 -6.638104 7.453099 7.935948 5.000581 20.002581 18.064270 -4.921947 -9.476123 -0.539306 39.298836 -65.752014 -77.045601 -83.895226 4.004668 25.316423 8.524705 12.647240 -55.442760 3.322233 12.489151 -0.342371 -64.997360 49.983200 -66.092682 73.154633 -8.674232 18.680271 -8.534408 -12.637552 69.310402 -130.873413 43.591087 -11.435776 125.666191 6.187667 -8.765572 -2.328938 -35.399208 -8.103362 -0.588372 -26.719639 -15.423901 -0.117837 5.940324 0.662496 -31.941927 -10.969069 -4.456146 
-47.112896 47.507034 2.730487 160.596603 13.681279 -16.562330 34.516560 -4.111478 2.455078 -25.868624 -7.063259 1.483676 -6.321570 6.785837 7.750947 1.884365 20.425009 17.224989 -4.921947 -9.476123 -0.539306 39.379772 -65.827919 -76.373161 -83.803780 4.082351 25.238047 8.524705 12.647240 -54.964245 3.322233 12.489151 -0.342371 -64.983185 50.011692 -66.434669 72.783768 -8.747203 18.488525 -8.534408 -12.637552 69.007668 -132.381668 41.645260 -11.069898 124.714981 6.078873 -8.803602 -11.250963 -31.257936 -11.820113 0.798298 -25.540123 -15.989388 -0.117805 5.940327 0.662496 -31.568558 -8.543341 -3.148748 
-47.077171 47.648933 2.527065 159.960312 13.064781 -16.138535 35.196930 -3.742029 2.586438 -26.183207 -7.039263 1.491812 -6.125055 6.246439 7.475585 -1.221619 20.585016 16.233202 -4.921947 -9.476123 -0.539306 39.451393 -65.922997 -75.584373 -83.697899 4.172507 25.137939 8.524705 12.647240 -54.417366 3.322233 12.489151 -0.342371 -64.958054 50.049259 -66.759598 72.389381 -8.817348 18.284023 -8.534408 -12.637552 68.704933 -133.871078 39.801952 -10.701910 123.595512 5.932029 -8.896173 -11.517287 -28.258595 -10.914799 2.196153 -24.509129 -16.540808 -0.117782 5.940327 0.662496 -30.960705 -5.522050 -1.460481 
-47.050713 47.789513 2.313058 159.283417 12.440760 -15.675108 35.890148 -3.358113 2.711913 -26.448132 -6.987621 1.488844 -6.125504 5.866134 7.133158 -4.217985 20.428106 15.129972 -4.921947 -9.476123 -0.539306 39.520199 -65.988052 -74.794395 -83.581360 4.267183 25.036911 8.524705 12.647240 -53.831429 3.322233 12.489151 -0.342371 -65.006035 50.101650 -67.141571 71.952888 -8.891529 18.065176 -8.534408 -12.637552 68.372902 -135.228806 38.083370 -10.221572 122.223274 5.755449 -8.971051 -10.541548 -25.771406 -9.694418 3.599988 -23.625811 -17.104280 -0.117768 5.940327 0.662495 -29.821262 -2.709381 0.250219 
-47.031857 47.923470 2.091114 158.570251 11.788860 -15.205937 36.576439 -2.956235 2.824254 -26.653095 -6.879586 1.470706 -6.351292 5.596337 6.729929 -7.015300 19.983891 14.010019 -4.921947 -9.476123 -0.539306 39.612709 -65.985374 -74.050133 -83.440987 4.379020 24.904112 8.524705 12.647240 -53.216198 3.322233 12.489151 -0.342371 -65.145798 50.170158 -67.602028 71.463684 -8.969779 17.821178 -8.534408 -12.637552 67.982277 -136.421402 36.521458 -9.694290 120.625977 5.541667 -9.072741 -8.951341 -23.693844 -8.450797 4.979757 -22.869732 -17.646502 -0.116748 5.940530 0.673244 -28.311960 -0.603250 1.588340 
-46.999443 47.951916 1.863215 157.798187 11.136024 -14.734332 37.266571 -2.528039 2.929660 -26.778440 -6.715679 1.434818 -6.771618 5.316934 6.323466 -9.659653 19.411942 12.889519 -4.921947 -9.476123 -0.539306 39.731449 -65.944984 -73.382881 -83.275467 4.508807 24.768051 8.524705 12.647240 -52.591198 3.322233 12.489151 -0.342371 -65.439507 50.278717 -68.225281 70.899254 -9.051047 17.540707 -8.534408 -12.637552 67.474472 -137.085342 35.115173 -8.925293 118.765419 5.286968 -9.202463 -7.691560 -21.977377 -7.543315 5.526403 -21.785851 -18.015289 -0.117737 5.940326 0.662495 -26.279615 -2.097111 1.179936 
-46.963715 47.972755 1.636969 156.975800 10.490064 -14.247869 37.988213 -2.078889 3.010467 -26.854483 -6.543479 1.390213 -7.278297 4.916227 5.939265 -12.293185 18.918430 11.826344 -4.921947 -9.476123 -0.539306 39.892380 -65.868149 -72.782349 -83.076332 4.660944 24.608841 8.524705 12.647240 -51.995495 3.322233 12.489151 -0.342371 -65.852524 50.464317 -69.018753 70.227814 -9.136668 17.207846 -8.534408 -12.637552 66.810410 -137.556534 33.778435 -8.058021 116.702087 5.004759 -9.308467 -6.634714 -20.505669 -6.842469 6.128616 -20.726328 -18.394415 -0.117718 5.940327 0.662495 -24.167959 -3.647699 0.838587 
